<?xml version="1.0" encoding="UTF-8" standalone="no"?>
<!DOCTYPE svg PUBLIC "-//W3C//DTD SVG 1.1//EN"
 "http://www.w3.org/Graphics/SVG/1.1/DTD/svg11.dtd">
<!-- Generated by graphviz version 12.0.0 (20240704.0754)
 -->
<!-- Pages: 1 -->
<svg width="497pt" height="304pt"
 viewBox="0.00 0.00 497.41 304.00" xmlns="http://www.w3.org/2000/svg" xmlns:xlink="http://www.w3.org/1999/xlink">
<g id="graph0" class="graph" transform="scale(1 1) rotate(0) translate(4 300)">
<polygon fill="white" stroke="none" points="-4,4 -4,-300 493.41,-300 493.41,4 -4,4"/>
<!-- prompt -->
<g id="node1" class="node">
<title>prompt</title>
<path fill="none" stroke="black" d="M408,-231C408,-231 376.25,-231 376.25,-231 370.25,-231 364.25,-225 364.25,-219 364.25,-219 364.25,-207 364.25,-207 364.25,-201 370.25,-195 376.25,-195 376.25,-195 408,-195 408,-195 414,-195 420,-201 420,-207 420,-207 420,-219 420,-219 420,-225 414,-231 408,-231"/>
<text text-anchor="middle" x="392.12" y="-207.95" font-family="Times,serif" font-size="14.00">prompt</text>
</g>
<!-- decide_mode -->
<g id="node3" class="node">
<title>decide_mode</title>
<path fill="none" stroke="black" d="M318.5,-166C318.5,-166 253.75,-166 253.75,-166 247.75,-166 241.75,-160 241.75,-154 241.75,-154 241.75,-142 241.75,-142 241.75,-136 247.75,-130 253.75,-130 253.75,-130 318.5,-130 318.5,-130 324.5,-130 330.5,-136 330.5,-142 330.5,-142 330.5,-154 330.5,-154 330.5,-160 324.5,-166 318.5,-166"/>
<text text-anchor="middle" x="286.12" y="-142.95" font-family="Times,serif" font-size="14.00">decide_mode</text>
</g>
<!-- prompt&#45;&gt;decide_mode -->
<g id="edge5" class="edge">
<title>prompt&#45;&gt;decide_mode</title>
<path fill="none" stroke="black" d="M364,-195.28C352.07,-188.19 337.97,-179.82 325.07,-172.15"/>
<polygon fill="black" stroke="black" points="327.18,-169.33 316.8,-167.23 323.6,-175.35 327.18,-169.33"/>
</g>
<!-- input__prompt -->
<g id="node2" class="node">
<title>input__prompt</title>
<ellipse fill="none" stroke="black" stroke-dasharray="5,2" cx="392.12" cy="-278" rx="62.1" ry="18"/>
<text text-anchor="middle" x="392.12" y="-272.95" font-family="Times,serif" font-size="14.00">input: prompt</text>
</g>
<!-- input__prompt&#45;&gt;prompt -->
<g id="edge1" class="edge">
<title>input__prompt&#45;&gt;prompt</title>
<path fill="none" stroke="black" d="M392.12,-259.78C392.12,-254.37 392.12,-248.24 392.12,-242.26"/>
<polygon fill="black" stroke="black" points="395.63,-242.71 392.13,-232.71 388.63,-242.71 395.63,-242.71"/>
</g>
<!-- generate_image -->
<g id="node4" class="node">
<title>generate_image</title>
<path fill="none" stroke="black" d="M90.25,-101C90.25,-101 12,-101 12,-101 6,-101 0,-95 0,-89 0,-89 0,-77 0,-77 0,-71 6,-65 12,-65 12,-65 90.25,-65 90.25,-65 96.25,-65 102.25,-71 102.25,-77 102.25,-77 102.25,-89 102.25,-89 102.25,-95 96.25,-101 90.25,-101"/>
<text text-anchor="middle" x="51.12" y="-77.95" font-family="Times,serif" font-size="14.00">generate_image</text>
</g>
<!-- decide_mode&#45;&gt;generate_image -->
<g id="edge6" class="edge">
<title>decide_mode&#45;&gt;generate_image</title>
<path fill="none" stroke="black" stroke-dasharray="5,2" d="M241.38,-132.38C238.59,-131.55 235.82,-130.75 233.12,-130 182.69,-115.94 166.94,-115.1 113.33,-101.5"/>
<polygon fill="black" stroke="black" points="114.5,-98.19 103.94,-99.08 112.75,-104.96 114.5,-98.19"/>
</g>
<!-- generate_code -->
<g id="node6" class="node">
<title>generate_code</title>
<path fill="none" stroke="black" d="M202.12,-101C202.12,-101 132.12,-101 132.12,-101 126.12,-101 120.12,-95 120.12,-89 120.12,-89 120.12,-77 120.12,-77 120.12,-71 126.12,-65 132.12,-65 132.12,-65 202.12,-65 202.12,-65 208.12,-65 214.12,-71 214.12,-77 214.12,-77 214.12,-89 214.12,-89 214.12,-95 208.12,-101 202.12,-101"/>
<text text-anchor="middle" x="167.12" y="-77.95" font-family="Times,serif" font-size="14.00">generate_code</text>
</g>
<!-- decide_mode&#45;&gt;generate_code -->
<g id="edge7" class="edge">
<title>decide_mode&#45;&gt;generate_code</title>
<path fill="none" stroke="black" stroke-dasharray="5,2" d="M253.29,-129.62C239.9,-122.53 224.22,-114.23 209.95,-106.67"/>
<polygon fill="black" stroke="black" points="211.66,-103.62 201.19,-102.03 208.39,-109.81 211.66,-103.62"/>
</g>
<!-- answer_question -->
<g id="node7" class="node">
<title>answer_question</title>
<path fill="none" stroke="black" d="M326.5,-101C326.5,-101 243.75,-101 243.75,-101 237.75,-101 231.75,-95 231.75,-89 231.75,-89 231.75,-77 231.75,-77 231.75,-71 237.75,-65 243.75,-65 243.75,-65 326.5,-65 326.5,-65 332.5,-65 338.5,-71 338.5,-77 338.5,-77 338.5,-89 338.5,-89 338.5,-95 332.5,-101 326.5,-101"/>
<text text-anchor="middle" x="285.12" y="-77.95" font-family="Times,serif" font-size="14.00">answer_question</text>
</g>
<!-- decide_mode&#45;&gt;answer_question -->
<g id="edge8" class="edge">
<title>decide_mode&#45;&gt;answer_question</title>
<path fill="none" stroke="black" stroke-dasharray="5,2" d="M285.85,-129.78C285.77,-124.37 285.67,-118.24 285.57,-112.26"/>
<polygon fill="black" stroke="black" points="289.08,-112.65 285.42,-102.71 282.08,-112.76 289.08,-112.65"/>
</g>
<!-- prompt_for_more -->
<g id="node8" class="node">
<title>prompt_for_more</title>
<path fill="none" stroke="black" d="M457.88,-101C457.88,-101 368.38,-101 368.38,-101 362.38,-101 356.38,-95 356.38,-89 356.38,-89 356.38,-77 356.38,-77 356.38,-71 362.38,-65 368.38,-65 368.38,-65 457.88,-65 457.88,-65 463.88,-65 469.88,-71 469.88,-77 469.88,-77 469.88,-89 469.88,-89 469.88,-95 463.88,-101 457.88,-101"/>
<text text-anchor="middle" x="413.12" y="-77.95" font-family="Times,serif" font-size="14.00">prompt_for_more</text>
</g>
<!-- decide_mode&#45;&gt;prompt_for_more -->
<g id="edge9" class="edge">
<title>decide_mode&#45;&gt;prompt_for_more</title>
<path fill="none" stroke="black" d="M321.16,-129.62C335.74,-122.39 352.84,-113.91 368.31,-106.23"/>
<polygon fill="black" stroke="black" points="369.44,-109.58 376.84,-102 366.33,-103.31 369.44,-109.58"/>
</g>
<!-- response -->
<g id="node9" class="node">
<title>response</title>
<path fill="none" stroke="black" d="M304.75,-36C304.75,-36 265.5,-36 265.5,-36 259.5,-36 253.5,-30 253.5,-24 253.5,-24 253.5,-12 253.5,-12 253.5,-6 259.5,0 265.5,0 265.5,0 304.75,0 304.75,0 310.75,0 316.75,-6 316.75,-12 316.75,-12 316.75,-24 316.75,-24 316.75,-30 310.75,-36 304.75,-36"/>
<text text-anchor="middle" x="285.12" y="-12.95" font-family="Times,serif" font-size="14.00">response</text>
</g>
<!-- generate_image&#45;&gt;response -->
<g id="edge10" class="edge">
<title>generate_image&#45;&gt;response</title>
<path fill="none" stroke="black" d="M102.5,-67.38C105.41,-66.57 108.31,-65.77 111.12,-65 155.72,-52.79 206.9,-39.32 242.15,-30.14"/>
<polygon fill="black" stroke="black" points="242.75,-33.6 251.55,-27.69 240.99,-26.82 242.75,-33.6"/>
</g>
<!-- input__model -->
<g id="node5" class="node">
<title>input__model</title>
<ellipse fill="none" stroke="black" stroke-dasharray="5,2" cx="165.12" cy="-148" rx="58.52" ry="18"/>
<text text-anchor="middle" x="165.12" y="-142.95" font-family="Times,serif" font-size="14.00">input: model</text>
</g>
<!-- input__model&#45;&gt;generate_image -->
<g id="edge2" class="edge">
<title>input__model&#45;&gt;generate_image</title>
<path fill="none" stroke="black" d="M137.53,-131.75C124.04,-124.29 107.52,-115.16 92.55,-106.89"/>
<polygon fill="black" stroke="black" points="94.26,-103.84 83.82,-102.07 90.88,-109.97 94.26,-103.84"/>
</g>
<!-- input__model&#45;&gt;generate_code -->
<g id="edge3" class="edge">
<title>input__model&#45;&gt;generate_code</title>
<path fill="none" stroke="black" d="M165.67,-129.78C165.84,-124.37 166.04,-118.24 166.23,-112.26"/>
<polygon fill="black" stroke="black" points="169.71,-112.81 166.53,-102.71 162.72,-112.59 169.71,-112.81"/>
</g>
<!-- input__model&#45;&gt;answer_question -->
<g id="edge4" class="edge">
<title>input__model&#45;&gt;answer_question</title>
<path fill="none" stroke="black" d="M193.87,-131.91C208.2,-124.38 225.84,-115.13 241.77,-106.76"/>
<polygon fill="black" stroke="black" points="243.38,-109.87 250.6,-102.12 240.12,-103.67 243.38,-109.87"/>
</g>
<!-- generate_code&#45;&gt;response -->
<g id="edge12" class="edge">
<title>generate_code&#45;&gt;response</title>
<path fill="none" stroke="black" d="M199.68,-64.62C213.08,-57.47 228.76,-49.09 243.01,-41.48"/>
<polygon fill="black" stroke="black" points="244.57,-44.62 251.75,-36.82 241.28,-38.44 244.57,-44.62"/>
</g>
<!-- answer_question&#45;&gt;response -->
<g id="edge11" class="edge">
<title>answer_question&#45;&gt;response</title>
<path fill="none" stroke="black" d="M285.12,-64.78C285.12,-59.37 285.12,-53.24 285.12,-47.26"/>
<polygon fill="black" stroke="black" points="288.63,-47.71 285.13,-37.71 281.63,-47.71 288.63,-47.71"/>
</g>
<!-- prompt_for_more&#45;&gt;response -->
<g id="edge13" class="edge">
<title>prompt_for_more&#45;&gt;response</title>
<path fill="none" stroke="black" d="M377.81,-64.62C362,-56.84 343.24,-47.61 326.76,-39.49"/>
<polygon fill="black" stroke="black" points="328.7,-36.55 318.19,-35.27 325.61,-42.83 328.7,-36.55"/>
</g>
<!-- response&#45;&gt;prompt -->
<g id="edge14" class="edge">
<title>response&#45;&gt;prompt</title>
<path fill="none" stroke="black" d="M317.03,-21.86C366.8,-27.05 459.27,-39.88 479.12,-65 510.58,-104.78 461.19,-157.01 424.93,-187.3"/>
<polygon fill="black" stroke="black" points="422.78,-184.54 417.22,-193.56 427.19,-189.97 422.78,-184.54"/>
</g>
</g>
</svg>