<?xml version="1.0" encoding="UTF-8" standalone="no"?>
<!DOCTYPE svg PUBLIC "-//W3C//DTD SVG 1.1//EN"
 "http://www.w3.org/Graphics/SVG/1.1/DTD/svg11.dtd">
<!-- Generated by graphviz version 12.0.0 (20240704.0754)
 -->
<!-- Pages: 1 -->
<svg width="576pt" height="328pt"
 viewBox="0.00 0.00 575.76 327.50" xmlns="http://www.w3.org/2000/svg" xmlns:xlink="http://www.w3.org/1999/xlink">
<g id="graph0" class="graph" transform="scale(1 1) rotate(0) translate(4 323.5)">
<polygon fill="white" stroke="none" points="-4,4 -4,-323.5 571.76,-323.5 571.76,4 -4,4"/>
<!-- prompt -->
<g id="node1" class="node">
<title>prompt</title>
<path fill="none" stroke="black" d="M505.39,-252.5C505.39,-252.5 473.64,-252.5 473.64,-252.5 467.64,-252.5 461.64,-246.5 461.64,-240.5 461.64,-240.5 461.64,-228.5 461.64,-228.5 461.64,-222.5 467.64,-216.5 473.64,-216.5 473.64,-216.5 505.39,-216.5 505.39,-216.5 511.39,-216.5 517.39,-222.5 517.39,-228.5 517.39,-228.5 517.39,-240.5 517.39,-240.5 517.39,-246.5 511.39,-252.5 505.39,-252.5"/>
<text text-anchor="middle" x="489.52" y="-229.45" font-family="Times,serif" font-size="14.00">prompt</text>
</g>
<!-- decide_mode -->
<g id="node3" class="node">
<title>decide_mode</title>
<path fill="none" stroke="black" d="M436.89,-185.5C436.89,-185.5 372.14,-185.5 372.14,-185.5 366.14,-185.5 360.14,-179.5 360.14,-173.5 360.14,-173.5 360.14,-161.5 360.14,-161.5 360.14,-155.5 366.14,-149.5 372.14,-149.5 372.14,-149.5 436.89,-149.5 436.89,-149.5 442.89,-149.5 448.89,-155.5 448.89,-161.5 448.89,-161.5 448.89,-173.5 448.89,-173.5 448.89,-179.5 442.89,-185.5 436.89,-185.5"/>
<text text-anchor="middle" x="404.52" y="-162.45" font-family="Times,serif" font-size="14.00">decide_mode</text>
</g>
<!-- prompt&#45;&gt;decide_mode -->
<g id="edge5" class="edge">
<title>prompt&#45;&gt;decide_mode</title>
<path fill="none" stroke="black" d="M466.74,-216.08C457.4,-208.94 446.43,-200.55 436.33,-192.82"/>
<polygon fill="black" stroke="black" points="438.63,-190.18 428.56,-186.89 434.38,-195.74 438.63,-190.18"/>
</g>
<!-- input__prompt -->
<g id="node2" class="node">
<title>input__prompt</title>
<ellipse fill="none" stroke="black" stroke-dasharray="5,2" cx="489.52" cy="-301.5" rx="62.1" ry="18"/>
<text text-anchor="middle" x="489.52" y="-296.45" font-family="Times,serif" font-size="14.00">input: prompt</text>
</g>
<!-- input__prompt&#45;&gt;prompt -->
<g id="edge1" class="edge">
<title>input__prompt&#45;&gt;prompt</title>
<path fill="none" stroke="black" d="M489.52,-283.08C489.52,-277.25 489.52,-270.59 489.52,-264.14"/>
<polygon fill="black" stroke="black" points="493.02,-264.48 489.52,-254.48 486.02,-264.48 493.02,-264.48"/>
</g>
<!-- generate_image -->
<g id="node4" class="node">
<title>generate_image</title>
<path fill="none" stroke="black" d="M130.64,-103C130.64,-103 52.39,-103 52.39,-103 46.39,-103 40.39,-97 40.39,-91 40.39,-91 40.39,-79 40.39,-79 40.39,-73 46.39,-67 52.39,-67 52.39,-67 130.64,-67 130.64,-67 136.64,-67 142.64,-73 142.64,-79 142.64,-79 142.64,-91 142.64,-91 142.64,-97 136.64,-103 130.64,-103"/>
<text text-anchor="middle" x="91.52" y="-79.95" font-family="Times,serif" font-size="14.00">generate_image</text>
</g>
<!-- decide_mode&#45;&gt;generate_image -->
<g id="edge6" class="edge">
<title>decide_mode&#45;&gt;generate_image</title>
<path fill="none" stroke="black" stroke-dasharray="5,2" d="M359.79,-166.05C290.41,-164.61 160.83,-158.64 122.27,-134.5 114.19,-129.44 107.85,-121.39 103.09,-113.3"/>
<polygon fill="black" stroke="black" points="106.28,-111.85 98.57,-104.58 100.06,-115.07 106.28,-111.85"/>
<text text-anchor="middle" x="185.14" y="-121.2" font-family="Times,serif" font-size="14.00">mode=generate_image</text>
</g>
<!-- generate_code -->
<g id="node6" class="node">
<title>generate_code</title>
<path fill="none" stroke="black" d="M278.52,-103C278.52,-103 208.52,-103 208.52,-103 202.52,-103 196.52,-97 196.52,-91 196.52,-91 196.52,-79 196.52,-79 196.52,-73 202.52,-67 208.52,-67 208.52,-67 278.52,-67 278.52,-67 284.52,-67 290.52,-73 290.52,-79 290.52,-79 290.52,-91 290.52,-91 290.52,-97 284.52,-103 278.52,-103"/>
<text text-anchor="middle" x="243.52" y="-79.95" font-family="Times,serif" font-size="14.00">generate_code</text>
</g>
<!-- decide_mode&#45;&gt;generate_code -->
<g id="edge7" class="edge">
<title>decide_mode&#45;&gt;generate_code</title>
<path fill="none" stroke="black" stroke-dasharray="5,2" d="M359.74,-161.19C323.45,-156.06 276.03,-147.17 261.52,-134.5 255.43,-129.18 251.39,-121.61 248.72,-114.02"/>
<polygon fill="black" stroke="black" points="252.16,-113.31 246.11,-104.61 245.41,-115.18 252.16,-113.31"/>
<text text-anchor="middle" x="320.02" y="-121.2" font-family="Times,serif" font-size="14.00">mode=generate_code</text>
</g>
<!-- answer_question -->
<g id="node7" class="node">
<title>answer_question</title>
<path fill="none" stroke="black" d="M402.89,-103C402.89,-103 320.14,-103 320.14,-103 314.14,-103 308.14,-97 308.14,-91 308.14,-91 308.14,-79 308.14,-79 308.14,-73 314.14,-67 320.14,-67 320.14,-67 402.89,-67 402.89,-67 408.89,-67 414.89,-73 414.89,-79 414.89,-79 414.89,-91 414.89,-91 414.89,-97 408.89,-103 402.89,-103"/>
<text text-anchor="middle" x="361.52" y="-79.95" font-family="Times,serif" font-size="14.00">answer_question</text>
</g>
<!-- decide_mode&#45;&gt;answer_question -->
<g id="edge8" class="edge">
<title>decide_mode&#45;&gt;answer_question</title>
<path fill="none" stroke="black" stroke-dasharray="5,2" d="M397.41,-149.12C393.38,-139.74 388.05,-128.04 382.52,-118 381.59,-116.32 380.61,-114.61 379.59,-112.9"/>
<polygon fill="black" stroke="black" points="382.65,-111.2 374.38,-104.59 376.72,-114.92 382.65,-111.2"/>
<text text-anchor="middle" x="454.39" y="-121.2" font-family="Times,serif" font-size="14.00">mode=answer_question</text>
</g>
<!-- prompt_for_more -->
<g id="node8" class="node">
<title>prompt_for_more</title>
<path fill="none" stroke="black" d="M534.27,-103C534.27,-103 444.77,-103 444.77,-103 438.77,-103 432.77,-97 432.77,-91 432.77,-91 432.77,-79 432.77,-79 432.77,-73 438.77,-67 444.77,-67 444.77,-67 534.27,-67 534.27,-67 540.27,-67 546.27,-73 546.27,-79 546.27,-79 546.27,-91 546.27,-91 546.27,-97 540.27,-103 534.27,-103"/>
<text text-anchor="middle" x="489.52" y="-79.95" font-family="Times,serif" font-size="14.00">prompt_for_more</text>
</g>
<!-- decide_mode&#45;&gt;prompt_for_more -->
<g id="edge9" class="edge">
<title>decide_mode&#45;&gt;prompt_for_more</title>
<path fill="none" stroke="black" d="M449.11,-160.23C478.92,-155.02 514.31,-146.51 523.52,-134.5 529.09,-127.23 526.67,-119.14 521.13,-111.69"/>
<polygon fill="black" stroke="black" points="523.84,-109.47 514.52,-104.43 518.67,-114.18 523.84,-109.47"/>
</g>
<!-- response -->
<g id="node9" class="node">
<title>response</title>
<path fill="none" stroke="black" d="M381.14,-36C381.14,-36 341.89,-36 341.89,-36 335.89,-36 329.89,-30 329.89,-24 329.89,-24 329.89,-12 329.89,-12 329.89,-6 335.89,0 341.89,0 341.89,0 381.14,0 381.14,0 387.14,0 393.14,-6 393.14,-12 393.14,-12 393.14,-24 393.14,-24 393.14,-30 387.14,-36 381.14,-36"/>
<text text-anchor="middle" x="361.52" y="-12.95" font-family="Times,serif" font-size="14.00">response</text>
</g>
<!-- generate_image&#45;&gt;response -->
<g id="edge10" class="edge">
<title>generate_image&#45;&gt;response</title>
<path fill="none" stroke="black" d="M142.94,-71.62C193.82,-59.37 270.83,-40.83 318.55,-29.34"/>
<polygon fill="black" stroke="black" points="319.35,-32.75 328.25,-27.01 317.71,-25.95 319.35,-32.75"/>
</g>
<!-- input__model -->
<g id="node5" class="node">
<title>input__model</title>
<ellipse fill="none" stroke="black" stroke-dasharray="5,2" cx="58.52" cy="-167.5" rx="58.52" ry="18"/>
<text text-anchor="middle" x="58.52" y="-162.45" font-family="Times,serif" font-size="14.00">input: model</text>
</g>
<!-- input__model&#45;&gt;generate_image -->
<g id="edge2" class="edge">
<title>input__model&#45;&gt;generate_image</title>
<path fill="none" stroke="black" d="M49.26,-149.64C45.25,-139.97 42.5,-127.85 47.52,-118 48.79,-115.5 50.36,-113.14 52.15,-110.94"/>
<polygon fill="black" stroke="black" points="54.25,-113.79 58.83,-104.24 49.29,-108.85 54.25,-113.79"/>
</g>
<!-- input__model&#45;&gt;generate_code -->
<g id="edge3" class="edge">
<title>input__model&#45;&gt;generate_code</title>
<path fill="none" stroke="black" d="M59.1,-149.33C60.4,-138.81 63.82,-125.9 72.52,-118 72.79,-117.75 135.74,-106.02 185.17,-96.83"/>
<polygon fill="black" stroke="black" points="185.76,-100.28 194.95,-95.01 184.48,-93.4 185.76,-100.28"/>
</g>
<!-- input__model&#45;&gt;answer_question -->
<g id="edge4" class="edge">
<title>input__model&#45;&gt;answer_question</title>
<path fill="none" stroke="black" d="M111.9,-159.9C143.3,-155.01 183.4,-146.98 217.52,-134.5 231.81,-129.27 233.43,-123.76 247.52,-118 250.2,-116.9 272.65,-110.56 296.93,-103.81"/>
<polygon fill="black" stroke="black" points="297.62,-107.25 306.32,-101.2 295.74,-100.5 297.62,-107.25"/>
</g>
<!-- generate_code&#45;&gt;response -->
<g id="edge12" class="edge">
<title>generate_code&#45;&gt;response</title>
<path fill="none" stroke="black" d="M275.14,-66.58C288.89,-59 305.2,-50.02 319.92,-41.91"/>
<polygon fill="black" stroke="black" points="321.41,-45.09 328.48,-37.2 318.03,-38.96 321.41,-45.09"/>
</g>
<!-- answer_question&#45;&gt;response -->
<g id="edge11" class="edge">
<title>answer_question&#45;&gt;response</title>
<path fill="none" stroke="black" d="M361.52,-66.58C361.52,-60.75 361.52,-54.09 361.52,-47.64"/>
<polygon fill="black" stroke="black" points="365.02,-47.98 361.52,-37.98 358.02,-47.98 365.02,-47.98"/>
</g>
<!-- prompt_for_more&#45;&gt;response -->
<g id="edge13" class="edge">
<title>prompt_for_more&#45;&gt;response</title>
<path fill="none" stroke="black" d="M455.22,-66.58C439.27,-58.48 420.17,-48.78 403.38,-40.26"/>
<polygon fill="black" stroke="black" points="405.13,-37.22 394.62,-35.81 401.96,-43.46 405.13,-37.22"/>
</g>
<!-- response&#45;&gt;prompt -->
<g id="edge14" class="edge">
<title>response&#45;&gt;prompt</title>
<path fill="none" stroke="black" d="M393.44,-22.2C443.23,-27.91 535.74,-41.73 555.52,-67 589.35,-110.23 545.13,-173.01 514.42,-207.83"/>
<polygon fill="black" stroke="black" points="512.11,-205.17 507.98,-214.93 517.29,-209.87 512.11,-205.17"/>
</g>
</g>
</svg>