<?xml version="1.0" encoding="utf-8"?>
<!-- Generator: Adobe Illustrator 16.0.3, SVG Export Plug-In . SVG Version: 6.00 Build 0)  -->
<!DOCTYPE svg PUBLIC "-//W3C//DTD SVG 1.1//EN" "http://www.w3.org/Graphics/SVG/1.1/DTD/svg11.dtd">
<svg version="1.1" id="Layer_1" xmlns="http://www.w3.org/2000/svg" xmlns:xlink="http://www.w3.org/1999/xlink" x="0px" y="0px"
	 width="4177.258px" height="4353.846px" viewBox="0 0 4177.258 4353.846" enable-background="new 0 0 4177.258 4353.846"
	 xml:space="preserve">
<g>

		<linearGradient id="SVGID_1_" gradientUnits="userSpaceOnUse" x1="968.6555" y1="385.6213" x2="4533.0913" y2="3950.0571" gradientTransform="matrix(4.371139e-008 1 -1 4.371139e-008 4168.8979 77.9465)">
		<stop  offset="0" style="stop-color:#FF8000"/>
		<stop  offset="1" style="stop-color:#FFE800"/>
	</linearGradient>
	<path fill="url(#SVGID_1_)" d="M155.294,2485.456c129.449,94.041,788.288,276.062,818.43,285.61
		c249.28,82.22,512.53,162.229,769.89,250.34c647.09,198.2,1306.689,430.21,1961.859,634.28
		c172.801,51.39,335.23-53.09,399.89-142.08c135.189-186.08,49.801-408.811-95.83-514.609
		c-121.35-88.17-336.05-132.909-472.83-182.841c-635.319-214.38-1274.319-406.7-1909.648-621.08c0,0-13.96,2.21-24.271-17.63
		c770.392-243.729,1538.57-501.42,2300.871-751.02c67.629-25.03,158.76-82.42,199.91-139.051
		c129.31-177.989,79.949-399.261-81.86-516.819c-202.25-146.95-372.771-48.352-679.311,50.319
		c-1015.181,325.449-2058.29,655.319-3077.13,1002.83c-61.75,16.939-144.8,80.211-191.819,144.93
		C-49.996,2138.536-14.597,2362.018,155.294,2485.456z"/>

		<linearGradient id="SVGID_2_" gradientUnits="userSpaceOnUse" x1="1099.6589" y1="755.405" x2="2486.2405" y2="3157.0352" gradientTransform="matrix(4.371139e-008 1 -1 4.371139e-008 4168.8979 77.9465)">
		<stop  offset="0" style="stop-color:#FF8000"/>
		<stop  offset="0.1643" style="stop-color:#EA6332"/>
		<stop  offset="0.3814" style="stop-color:#D1406D"/>
		<stop  offset="0.5814" style="stop-color:#BD249B"/>
		<stop  offset="0.7575" style="stop-color:#AF10BD"/>
		<stop  offset="0.903" style="stop-color:#A604D2"/>
		<stop  offset="1" style="stop-color:#A300D9"/>
	</linearGradient>
	<path fill="url(#SVGID_2_)" d="M1900.782,4280.407c129.44-94.051,506.142-664.39,524.54-690.121
		c155.229-211.67,312.67-437.3,475.99-654.85c388.46-554.16,812.95-1109.78,1209.488-1669.83
		c102.271-148.46,53.102-335.229-11.56-424.22c-135.19-186.08-373.399-173.69-519.03-67.892
		c-121.35,88.172-230.25,278.541-320,393.19c-400.22,537.979-780.58,1086.271-1180.8,1624.26c0,0-2.21,13.972-24.271,17.63
		c6.271-808-1.431-1618.21-3.25-2420.33c-2.909-72.05-29.329-176.46-70.47-233.09c-129.311-177.988-355.021-199.42-516.819-81.859
		c-202.25,146.949-161.171,339.591-162.061,661.62c-4.189,1066.061-12.801,2160.05,2.859,3236.409
		c-2.971,63.97,31.54,162.5,78.561,227.22C1507.403,4368.446,1730.894,4403.837,1900.782,4280.407z"/>

		<linearGradient id="SVGID_3_" gradientUnits="userSpaceOnUse" x1="1238.1741" y1="1956.947" x2="3839.562" y2="2184.5391" gradientTransform="matrix(4.371139e-008 1 -1 4.371139e-008 4168.8979 77.9465)">
		<stop  offset="0" style="stop-color:#FF8000;stop-opacity:0"/>
		<stop  offset="0.1884" style="stop-color:#FF8400;stop-opacity:0.1884"/>
		<stop  offset="0.3874" style="stop-color:#FF9100;stop-opacity:0.3874"/>
		<stop  offset="0.5913" style="stop-color:#FFA600;stop-opacity:0.5913"/>
		<stop  offset="0.7972" style="stop-color:#FFC300;stop-opacity:0.7972"/>
		<stop  offset="1" style="stop-color:#FFE800"/>
	</linearGradient>
	<path fill="url(#SVGID_3_)" d="M155.294,2485.456c129.449,94.041,788.288,276.062,818.43,285.61
		c249.28,82.22,512.53,162.229,769.89,250.34c647.09,198.2,1306.689,430.21,1961.859,634.28
		c172.801,51.39,335.23-53.09,399.89-142.08c135.189-186.08,49.801-408.811-95.83-514.609
		c-121.35-88.17-336.05-132.909-472.83-182.841c-635.319-214.38-1274.319-406.7-1909.648-621.08c0,0-13.96,2.21-24.271-17.63
		c770.392-243.729,1538.57-501.42,2300.871-751.02c67.629-25.03,158.76-82.42,199.91-139.051
		c129.31-177.989,79.949-399.261-81.86-516.819c-202.25-146.95-372.771-48.352-679.311,50.319
		c-1015.181,325.449-2058.29,655.319-3077.13,1002.83c-61.75,16.939-144.8,80.211-191.819,144.93
		C-49.996,2138.536-14.597,2362.018,155.294,2485.456z"/>
</g>
<g>
	<path fill="#FFFFFF" d="M1848.779,1216.977c-9.307-17.419-21.126-31.843-35.216-42.994c9.109-9.238,16.663-20.169,22.544-32.651
		c8.061-17.106,12.146-37.332,12.146-60.116c0-27.166-6.112-52.013-18.169-73.854c-12.473-22.584-31.143-40.526-55.494-53.333
		c-23.37-12.287-52.117-18.516-85.442-18.516H1510.92v499.363h186.302c35.833,0,66.38-6.056,90.789-17.996
		c25.891-12.662,45.565-30.646,58.479-53.453c12.448-21.979,18.76-47.033,18.76-74.469
		C1865.25,1261.655,1859.709,1237.439,1848.779,1216.977z M1740.798,1108.245c-4.341,7.511-10.268,13.265-18.122,17.593
		c-8.254,4.548-18.039,6.76-29.916,6.76h-79.285v-98.292h75.674c21.176,0,36.42,4.369,45.302,12.98
		c8.835,8.569,12.949,19.352,12.949,33.929C1747.399,1091.719,1745.24,1100.56,1740.798,1108.245z M1613.475,1230.967h85.447
		c14.328,0,26.117,2.642,36.033,8.073c9.56,5.238,16.694,12.003,21.812,20.673c5.134,8.706,7.63,18.271,7.63,29.241
		c0,13.718-4.461,24.244-14.033,33.125c-9.871,9.157-28.246,13.997-53.141,13.997h-83.748V1230.967L1613.475,1230.967z"/>
	<path fill="#FFFFFF" d="M1761.834,1554.99v290.824c0,14.04-2.875,25.924-8.791,36.33c-5.688,10-13.625,17.699-24.268,23.538
		c-11.072,6.079-24.763,9.162-40.688,9.162c-15.906,0-29.548-3.073-40.551-9.136c-10.633-5.855-18.603-13.596-24.365-23.66
		c-5.943-10.38-8.832-22.231-8.832-36.233V1554.99h-110.083v293.277c0,33.021,8.004,63.157,23.787,89.566
		c15.76,26.375,37.89,47.422,65.776,62.56c27.45,14.901,59.166,22.458,94.267,22.458c35.209,0,66.945-7.518,94.327-22.346
		c27.854-15.083,49.972-36.151,65.74-62.618c15.77-26.47,23.765-56.622,23.765-89.62V1554.99H1761.834z"/>
	<path fill="#FFFFFF" d="M1790.043,2433.866c22.06-13.617,39.325-31.729,51.414-53.963c13.305-24.471,20.051-52.679,20.051-83.841
		c0-31.106-6.723-59.381-19.982-84.041c-13.755-25.568-34.282-45.797-61.019-60.127c-25.79-13.817-57.479-20.824-94.186-20.824
		h-175.4v508.24h104.673v-179.556h69.57l96.971,179.556h119.968L1790.043,2433.866z M1615.594,2231.622h69.646
		c18.141,0,32.781,2.812,43.511,8.351c9.521,4.919,16.371,11.524,20.944,20.19c5.169,9.808,7.791,21.886,7.791,35.899
		c0,13.943-2.552,25.777-7.583,35.172c-4.414,8.239-11.12,14.513-20.509,19.184c-10.841,5.396-25.479,8.134-43.504,8.134h-70.296
		V2231.622L1615.594,2231.622z"/>
	<path fill="#FFFFFF" d="M1790.043,3033.866c22.06-13.617,39.325-31.729,51.414-53.963c13.305-24.471,20.051-52.679,20.051-83.841
		c0-31.106-6.723-59.381-19.982-84.041c-13.755-25.568-34.282-45.797-61.019-60.127c-25.79-13.818-57.479-20.824-94.186-20.824
		h-175.4v508.24h104.673v-179.556h69.57l96.971,179.556h119.968L1790.043,3033.866z M1615.594,2831.622h69.646
		c18.141,0,32.781,2.812,43.511,8.351c9.521,4.919,16.371,11.524,20.944,20.19c5.169,9.808,7.791,21.886,7.791,35.899
		c0,13.943-2.552,25.777-7.583,35.172c-4.414,8.239-11.12,14.513-20.509,19.184c-10.841,5.396-25.479,8.134-43.504,8.134h-70.296
		V2831.622L1615.594,2831.622z"/>
</g>
</svg>
