<?xml version="1.0" encoding="UTF-8" standalone="no"?>
<!DOCTYPE svg PUBLIC "-//W3C//DTD SVG 1.1//EN"
 "http://www.w3.org/Graphics/SVG/1.1/DTD/svg11.dtd">
<!-- Generated by graphviz version 12.0.0 (20240704.0754)
 -->
<!-- Pages: 1 -->
<svg width="194pt" height="331pt"
 viewBox="0.00 0.00 193.93 330.50" xmlns="http://www.w3.org/2000/svg" xmlns:xlink="http://www.w3.org/1999/xlink">
<g id="graph0" class="graph" transform="scale(1 1) rotate(0) translate(4 326.5)">
<polygon fill="white" stroke="none" points="-4,4 -4,-326.5 189.93,-326.5 189.93,4 -4,4"/>
<!-- start -->
<g id="node1" class="node">
<title>start</title>
<path fill="#b4d8e4" stroke="black" d="M122.93,-322.5C122.93,-322.5 92.92,-322.5 92.92,-322.5 86.92,-322.5 80.92,-316.5 80.92,-310.5 80.92,-310.5 80.92,-297.9 80.92,-297.9 80.92,-291.9 86.92,-285.9 92.92,-285.9 92.92,-285.9 122.93,-285.9 122.93,-285.9 128.93,-285.9 134.93,-291.9 134.93,-297.9 134.93,-297.9 134.93,-310.5 134.93,-310.5 134.93,-316.5 128.93,-322.5 122.93,-322.5"/>
<text text-anchor="middle" x="107.92" y="-298.4" font-family="Helvetica,sans-Serif" font-size="14.00">start</text>
</g>
<!-- prompt_for_challenge -->
<g id="node2" class="node">
<title>prompt_for_challenge</title>
<path fill="#b4d8e4" stroke="black" d="M172.35,-254.9C172.35,-254.9 43.5,-254.9 43.5,-254.9 37.5,-254.9 31.5,-248.9 31.5,-242.9 31.5,-242.9 31.5,-230.3 31.5,-230.3 31.5,-224.3 37.5,-218.3 43.5,-218.3 43.5,-218.3 172.35,-218.3 172.35,-218.3 178.35,-218.3 184.35,-224.3 184.35,-230.3 184.35,-230.3 184.35,-242.9 184.35,-242.9 184.35,-248.9 178.35,-254.9 172.35,-254.9"/>
<text text-anchor="middle" x="107.92" y="-230.8" font-family="Helvetica,sans-Serif" font-size="14.00">prompt_for_challenge</text>
</g>
<!-- start&#45;&gt;prompt_for_challenge -->
<g id="edge1" class="edge">
<title>start&#45;&gt;prompt_for_challenge</title>
<path fill="none" stroke="black" d="M107.92,-285.62C107.92,-279.74 107.92,-273.02 107.92,-266.5"/>
<polygon fill="black" stroke="black" points="111.43,-266.74 107.93,-256.74 104.43,-266.74 111.43,-266.74"/>
</g>
<!-- evaluate_attempt -->
<g id="node3" class="node">
<title>evaluate_attempt</title>
<path fill="#b4d8e4" stroke="black" d="M113.85,-187.3C113.85,-187.3 12,-187.3 12,-187.3 6,-187.3 0,-181.3 0,-175.3 0,-175.3 0,-162.7 0,-162.7 0,-156.7 6,-150.7 12,-150.7 12,-150.7 113.85,-150.7 113.85,-150.7 119.85,-150.7 125.85,-156.7 125.85,-162.7 125.85,-162.7 125.85,-175.3 125.85,-175.3 125.85,-181.3 119.85,-187.3 113.85,-187.3"/>
<text text-anchor="middle" x="62.92" y="-163.2" font-family="Helvetica,sans-Serif" font-size="14.00">evaluate_attempt</text>
</g>
<!-- prompt_for_challenge&#45;&gt;evaluate_attempt -->
<g id="edge2" class="edge">
<title>prompt_for_challenge&#45;&gt;evaluate_attempt</title>
<path fill="none" stroke="black" d="M95.87,-218.02C91.43,-211.55 86.29,-204.06 81.42,-196.96"/>
<polygon fill="black" stroke="black" points="84.42,-195.14 75.87,-188.88 78.64,-199.1 84.42,-195.14"/>
</g>
<!-- maybe_progress -->
<g id="node4" class="node">
<title>maybe_progress</title>
<path fill="#b4d8e4" stroke="black" d="M157.35,-119.7C157.35,-119.7 58.5,-119.7 58.5,-119.7 52.5,-119.7 46.5,-113.7 46.5,-107.7 46.5,-107.7 46.5,-95.1 46.5,-95.1 46.5,-89.1 52.5,-83.1 58.5,-83.1 58.5,-83.1 157.35,-83.1 157.35,-83.1 163.35,-83.1 169.35,-89.1 169.35,-95.1 169.35,-95.1 169.35,-107.7 169.35,-107.7 169.35,-113.7 163.35,-119.7 157.35,-119.7"/>
<text text-anchor="middle" x="107.92" y="-95.6" font-family="Helvetica,sans-Serif" font-size="14.00">maybe_progress</text>
</g>
<!-- evaluate_attempt&#45;&gt;maybe_progress -->
<g id="edge3" class="edge">
<title>evaluate_attempt&#45;&gt;maybe_progress</title>
<path fill="none" stroke="black" d="M74.98,-150.42C79.42,-143.95 84.56,-136.46 89.43,-129.36"/>
<polygon fill="black" stroke="black" points="92.21,-131.5 94.98,-121.28 86.43,-127.54 92.21,-131.5"/>
</g>
<!-- maybe_progress&#45;&gt;prompt_for_challenge -->
<g id="edge5" class="edge">
<title>maybe_progress&#45;&gt;prompt_for_challenge</title>
<path fill="none" stroke="black" d="M120.51,-119.81C126.11,-128.61 132.07,-139.73 134.93,-150.7 139.03,-166.44 139.03,-171.56 134.93,-187.3 133.05,-194.5 129.84,-201.76 126.27,-208.39"/>
<polygon fill="black" stroke="black" points="123.33,-206.49 121.28,-216.88 129.36,-210.04 123.33,-206.49"/>
</g>
<!-- win -->
<g id="node5" class="node">
<title>win</title>
<path fill="#b4d8e4" stroke="black" d="M122.93,-36.6C122.93,-36.6 92.92,-36.6 92.92,-36.6 86.92,-36.6 80.92,-30.6 80.92,-24.6 80.92,-24.6 80.92,-12 80.92,-12 80.92,-6 86.92,0 92.92,0 92.92,0 122.93,0 122.93,0 128.93,0 134.93,-6 134.93,-12 134.93,-12 134.93,-24.6 134.93,-24.6 134.93,-30.6 128.93,-36.6 122.93,-36.6"/>
<text text-anchor="middle" x="107.92" y="-12.5" font-family="Helvetica,sans-Serif" font-size="14.00">win</text>
</g>
<!-- maybe_progress&#45;&gt;win -->
<g id="edge4" class="edge">
<title>maybe_progress&#45;&gt;win</title>
<path fill="none" stroke="black" stroke-dasharray="5,2" d="M107.92,-82.8C107.92,-72.71 107.92,-59.78 107.92,-48.23"/>
<polygon fill="black" stroke="black" points="111.43,-48.38 107.93,-38.38 104.43,-48.38 111.43,-48.38"/>
<text text-anchor="middle" x="146.93" y="-54.8" font-family="Times,serif" font-size="14.00">did_win=True</text>
</g>
</g>
</svg>