<?xml version="1.0" encoding="UTF-8" standalone="no"?>
<!DOCTYPE svg PUBLIC "-//W3C//DTD SVG 1.1//EN"
 "http://www.w3.org/Graphics/SVG/1.1/DTD/svg11.dtd">
<!-- Generated by graphviz version 2.43.0 (0)
 -->
<!-- Title: %3 Pages: 1 -->
<svg width="220pt" height="113pt"
 viewBox="0.00 0.00 220.00 113.00" xmlns="http://www.w3.org/2000/svg" xmlns:xlink="http://www.w3.org/1999/xlink">
<g id="graph0" class="graph" transform="scale(1 1) rotate(0) translate(4 109)">
<title>%3</title>
<polygon fill="white" stroke="transparent" points="-4,4 -4,-109 216,-109 216,4 -4,4"/>
<!-- increment -->
<g id="node1" class="node">
<title>increment</title>
<path fill="#b4d8e4" stroke="black" d="M88,-105C88,-105 20,-105 20,-105 14,-105 8,-99 8,-93 8,-93 8,-80 8,-80 8,-74 14,-68 20,-68 20,-68 88,-68 88,-68 94,-68 100,-74 100,-80 100,-80 100,-93 100,-93 100,-99 94,-105 88,-105"/>
<text text-anchor="middle" x="54" y="-82.8" font-family="Helvetica,sans-Serif" font-size="14.00">increment</text>
</g>
<!-- increment&#45;&gt;increment -->
<g id="edge1" class="edge">
<title>increment&#45;&gt;increment</title>
<path fill="none" stroke="black" stroke-dasharray="5,2" d="M100.02,-92.72C110.41,-92.16 118,-90.09 118,-86.5 118,-84.26 115.03,-82.61 110.27,-81.55"/>
<polygon fill="black" stroke="black" points="110.38,-78.04 100.02,-80.28 109.52,-84.98 110.38,-78.04"/>
<text text-anchor="middle" x="165" y="-82.8" font-family="Times,serif" font-size="14.00">counter &lt; 10</text>
</g>
<!-- exit_counter -->
<g id="node2" class="node">
<title>exit_counter</title>
<path fill="#b4d8e4" stroke="black" d="M96,-37C96,-37 12,-37 12,-37 6,-37 0,-31 0,-25 0,-25 0,-12 0,-12 0,-6 6,0 12,0 12,0 96,0 96,0 102,0 108,-6 108,-12 108,-12 108,-25 108,-25 108,-31 102,-37 96,-37"/>
<text text-anchor="middle" x="54" y="-14.8" font-family="Helvetica,sans-Serif" font-size="14.00">exit_counter</text>
</g>
<!-- increment&#45;&gt;exit_counter -->
<g id="edge2" class="edge">
<title>increment&#45;&gt;exit_counter</title>
<path fill="none" stroke="black" d="M54,-67.81C54,-61.6 54,-54.45 54,-47.6"/>
<polygon fill="black" stroke="black" points="57.5,-47.24 54,-37.24 50.5,-47.24 57.5,-47.24"/>
</g>
</g>
</svg>