<?xml version="1.0" encoding="UTF-8" standalone="no"?>
<!DOCTYPE svg PUBLIC "-//W3C//DTD SVG 1.1//EN"
 "http://www.w3.org/Graphics/SVG/1.1/DTD/svg11.dtd">
<!-- Generated by graphviz version 12.0.0 (20240704.0754)
 -->
<!-- Pages: 1 -->
<svg width="200pt" height="211pt"
 viewBox="0.00 0.00 199.93 210.80" xmlns="http://www.w3.org/2000/svg" xmlns:xlink="http://www.w3.org/1999/xlink">
<g id="graph0" class="graph" transform="scale(1 1) rotate(0) translate(4 206.8)">
<polygon fill="white" stroke="none" points="-4,4 -4,-206.8 195.93,-206.8 195.93,4 -4,4"/>
<!-- say_nothing -->
<g id="node1" class="node">
<title>say_nothing</title>
<path fill="#b4d8e4" stroke="black" d="M103.35,-202.8C103.35,-202.8 33,-202.8 33,-202.8 27,-202.8 21,-196.8 21,-190.8 21,-190.8 21,-178.2 21,-178.2 21,-172.2 27,-166.2 33,-166.2 33,-166.2 103.35,-166.2 103.35,-166.2 109.35,-166.2 115.35,-172.2 115.35,-178.2 115.35,-178.2 115.35,-190.8 115.35,-190.8 115.35,-196.8 109.35,-202.8 103.35,-202.8"/>
<text text-anchor="middle" x="68.17" y="-178.7" font-family="Helvetica,sans-Serif" font-size="14.00">say_nothing</text>
</g>
<!-- cow_should_speak -->
<g id="node3" class="node">
<title>cow_should_speak</title>
<path fill="#b4d8e4" stroke="black" d="M124.35,-119.7C124.35,-119.7 12,-119.7 12,-119.7 6,-119.7 0,-113.7 0,-107.7 0,-107.7 0,-95.1 0,-95.1 0,-89.1 6,-83.1 12,-83.1 12,-83.1 124.35,-83.1 124.35,-83.1 130.35,-83.1 136.35,-89.1 136.35,-95.1 136.35,-95.1 136.35,-107.7 136.35,-107.7 136.35,-113.7 130.35,-119.7 124.35,-119.7"/>
<text text-anchor="middle" x="68.17" y="-95.6" font-family="Helvetica,sans-Serif" font-size="14.00">cow_should_speak</text>
</g>
<!-- say_nothing&#45;&gt;cow_should_speak -->
<g id="edge4" class="edge">
<title>say_nothing&#45;&gt;cow_should_speak</title>
<path fill="none" stroke="black" d="M66.88,-165.74C66.59,-161.02 66.32,-155.92 66.17,-151.2 65.95,-143.87 65.95,-142.03 66.17,-134.7 66.21,-133.67 66.24,-132.62 66.29,-131.56"/>
<polygon fill="black" stroke="black" points="69.78,-131.84 66.8,-121.67 62.79,-131.48 69.78,-131.84"/>
</g>
<!-- say_hello -->
<g id="node2" class="node">
<title>say_hello</title>
<path fill="#b4d8e4" stroke="black" d="M95.47,-36.6C95.47,-36.6 40.88,-36.6 40.88,-36.6 34.88,-36.6 28.88,-30.6 28.88,-24.6 28.88,-24.6 28.88,-12 28.88,-12 28.88,-6 34.88,0 40.88,0 40.88,0 95.47,0 95.47,0 101.47,0 107.47,-6 107.47,-12 107.47,-12 107.47,-24.6 107.47,-24.6 107.47,-30.6 101.47,-36.6 95.47,-36.6"/>
<text text-anchor="middle" x="68.17" y="-12.5" font-family="Helvetica,sans-Serif" font-size="14.00">say_hello</text>
</g>
<!-- say_hello&#45;&gt;cow_should_speak -->
<g id="edge2" class="edge">
<title>say_hello&#45;&gt;cow_should_speak</title>
<path fill="none" stroke="black" d="M100.96,-36.93C105.88,-41.07 110.28,-45.95 113.17,-51.6 116.52,-58.12 116.52,-61.58 113.17,-68.1 112,-70.39 110.57,-72.56 108.97,-74.6"/>
<polygon fill="black" stroke="black" points="106.52,-72.1 102.02,-81.69 111.52,-77 106.52,-72.1"/>
</g>
<!-- cow_should_speak&#45;&gt;say_nothing -->
<g id="edge3" class="edge">
<title>cow_should_speak&#45;&gt;say_nothing</title>
<path fill="none" stroke="black" stroke-dasharray="5,2" d="M68.17,-119.96C68.17,-130.05 68.17,-142.98 68.17,-154.53"/>
<polygon fill="black" stroke="black" points="64.68,-154.39 68.18,-164.39 71.68,-154.39 64.68,-154.39"/>
<text text-anchor="middle" x="130.05" y="-137.9" font-family="Times,serif" font-size="14.00">not cow_should_speak</text>
</g>
<!-- cow_should_speak&#45;&gt;say_hello -->
<g id="edge1" class="edge">
<title>cow_should_speak&#45;&gt;say_hello</title>
<path fill="none" stroke="black" stroke-dasharray="5,2" d="M25.76,-82.82C12.58,-74.62 3.19,-63.94 10.42,-51.6 12.84,-47.48 16,-43.84 19.6,-40.64"/>
<polygon fill="black" stroke="black" points="21.46,-43.61 27.42,-34.85 17.3,-37.99 21.46,-43.61"/>
<text text-anchor="middle" x="62.55" y="-54.8" font-family="Times,serif" font-size="14.00">cow_should_speak</text>
</g>
</g>
</svg>