<?xml version="1.0" encoding="UTF-8" standalone="no"?>
<!DOCTYPE svg PUBLIC "-//W3C//DTD SVG 1.1//EN"
 "http://www.w3.org/Graphics/SVG/1.1/DTD/svg11.dtd">
<!-- Generated by graphviz version 9.0.0 (20230911.1827)
 -->
<!-- Pages: 1 -->
<svg width="192pt" height="209pt"
 viewBox="0.00 0.00 192.02 209.00" xmlns="http://www.w3.org/2000/svg" xmlns:xlink="http://www.w3.org/1999/xlink">
<g id="graph0" class="graph" transform="scale(1 1) rotate(0) translate(4 205)">
<polygon fill="white" stroke="none" points="-4,4 -4,-205 188.02,-205 188.02,4 -4,4"/>
<!-- say_nothing -->
<g id="node1" class="node">
<title>say_nothing</title>
<path fill="none" stroke="black" d="M89.27,-201C89.27,-201 31.27,-201 31.27,-201 25.27,-201 19.27,-195 19.27,-189 19.27,-189 19.27,-177 19.27,-177 19.27,-171 25.27,-165 31.27,-165 31.27,-165 89.27,-165 89.27,-165 95.27,-165 101.27,-171 101.27,-177 101.27,-177 101.27,-189 101.27,-189 101.27,-195 95.27,-201 89.27,-201"/>
<text text-anchor="middle" x="60.27" y="-177.95" font-family="Times,serif" font-size="14.00">say_nothing</text>
</g>
<!-- cow_should_speak -->
<g id="node3" class="node">
<title>cow_should_speak</title>
<path fill="none" stroke="black" d="M107.65,-118.5C107.65,-118.5 12.9,-118.5 12.9,-118.5 6.9,-118.5 0.9,-112.5 0.9,-106.5 0.9,-106.5 0.9,-94.5 0.9,-94.5 0.9,-88.5 6.9,-82.5 12.9,-82.5 12.9,-82.5 107.65,-82.5 107.65,-82.5 113.65,-82.5 119.65,-88.5 119.65,-94.5 119.65,-94.5 119.65,-106.5 119.65,-106.5 119.65,-112.5 113.65,-118.5 107.65,-118.5"/>
<text text-anchor="middle" x="60.27" y="-95.45" font-family="Times,serif" font-size="14.00">cow_should_speak</text>
</g>
<!-- say_nothing&#45;&gt;cow_should_speak -->
<g id="edge4" class="edge">
<title>say_nothing&#45;&gt;cow_should_speak</title>
<path fill="none" stroke="black" d="M58.99,-164.74C58.7,-159.97 58.42,-154.78 58.27,-150 58.04,-142.67 58.04,-140.83 58.27,-133.5 58.31,-132.3 58.35,-131.08 58.41,-129.85"/>
<polygon fill="black" stroke="black" points="61.88,-130.45 58.91,-120.27 54.89,-130.07 61.88,-130.45"/>
</g>
<!-- say_hello -->
<g id="node2" class="node">
<title>say_hello</title>
<path fill="none" stroke="black" d="M82.15,-36C82.15,-36 38.4,-36 38.4,-36 32.4,-36 26.4,-30 26.4,-24 26.4,-24 26.4,-12 26.4,-12 26.4,-6 32.4,0 38.4,0 38.4,0 82.15,0 82.15,0 88.15,0 94.15,-6 94.15,-12 94.15,-12 94.15,-24 94.15,-24 94.15,-30 88.15,-36 82.15,-36"/>
<text text-anchor="middle" x="60.27" y="-12.95" font-family="Times,serif" font-size="14.00">say_hello</text>
</g>
<!-- say_hello&#45;&gt;cow_should_speak -->
<g id="edge2" class="edge">
<title>say_hello&#45;&gt;cow_should_speak</title>
<path fill="none" stroke="black" d="M93.05,-36.42C97.97,-40.53 102.37,-45.38 105.27,-51 108.63,-57.52 108.63,-60.98 105.27,-67.5 104.09,-69.78 102.67,-71.94 101.06,-73.97"/>
<polygon fill="black" stroke="black" points="98.65,-71.43 94.11,-81 103.63,-76.35 98.65,-71.43"/>
</g>
<!-- cow_should_speak&#45;&gt;say_nothing -->
<g id="edge3" class="edge">
<title>cow_should_speak&#45;&gt;say_nothing</title>
<path fill="none" stroke="black" stroke-dasharray="5,2" d="M60.27,-118.93C60.27,-128.95 60.27,-141.78 60.27,-153.25"/>
<polygon fill="black" stroke="black" points="56.77,-153.02 60.27,-163.02 63.77,-153.02 56.77,-153.02"/>
<text text-anchor="middle" x="122.15" y="-136.7" font-family="Times,serif" font-size="14.00">not cow_should_speak</text>
</g>
<!-- cow_should_speak&#45;&gt;say_hello -->
<g id="edge1" class="edge">
<title>cow_should_speak&#45;&gt;say_hello</title>
<path fill="none" stroke="black" stroke-dasharray="5,2" d="M16.41,-82.17C10.87,-78.17 5.95,-73.33 2.52,-67.5 -4.42,-55.72 3.91,-45.49 16.2,-37.49"/>
<polygon fill="black" stroke="black" points="17.9,-40.55 24.87,-32.57 14.44,-34.46 17.9,-40.55"/>
<text text-anchor="middle" x="54.65" y="-54.2" font-family="Times,serif" font-size="14.00">cow_should_speak</text>
</g>
</g>
</svg>